<svg id="Layer_1" data-name="Layer 1" xmlns="http://www.w3.org/2000/svg" xmlns:xlink="http://www.w3.org/1999/xlink" viewBox="0 0 1354.48 210.9"><defs><style>.cls-1,.cls-4{fill:none;}.cls-2{fill:#b6ccd6;}.cls-3{fill:#fff;}.cls-4{stroke:#fff;stroke-miterlimit:10;stroke-width:2.65px;}.cls-5{clip-path:url(#clip-path);}.cls-6{fill:#999aca;}.cls-7{fill:#4d59a3;}.cls-8{fill:#0033a1;}.cls-9{fill:#fdb71a;}.cls-10{fill:#111c4e;}</style><clipPath id="clip-path" transform="translate(-72.76 -144.55)"><circle class="cls-1" cx="178.21" cy="249.65" r="88.53" transform="translate(-52.59 47.62) rotate(-13.28)"/></clipPath></defs><circle class="cls-2" cx="105.45" cy="105.45" r="88.44"/><path class="cls-3" d="M381.5,272.26c-4.64,2.39-13.05,4.5-23.73,4.5-22.28,0-43.63-15-43.63-52.1,0-33.91,19.56-53.61,46.52-53.61,10.86,0,17.46,2.35,20.32,3.89l-2.3,6a41,41,0,0,0-18.29-3.81c-22.63,0-38.9,16-38.9,47.23,0,30.35,15.07,46.17,38.23,46.17,7.68,0,14.86-1.62,19.71-4.12Z" transform="translate(-72.76 -144.55)"/><path class="cls-3" d="M467.25,223.19c0,36.88-19.4,53.72-40.55,53.72-21.7,0-39.26-18.21-39.26-52.28,0-35,18.19-53.72,40.69-53.72C450.24,170.91,467.25,189.28,467.25,223.19Zm-72.46,1.28c0,22.18,10.63,46.4,32.51,46.4s32.59-23.58,32.59-47.36c0-21.14-9.5-46.57-32.43-46.57S394.79,201.59,394.79,224.47Z" transform="translate(-72.76 -144.55)"/><path class="cls-3" d="M490,172.45V237c0,24.53,10.78,33.79,24.18,33.79,15,0,25.28-10.17,25.28-33.79V172.45h7v63.86c0,30.17-15.38,40.6-32.72,40.6-16.08,0-30.84-9.5-30.84-39.18V172.45Z" transform="translate(-72.76 -144.55)"/><path class="cls-3" d="M633.84,271.41A69.2,69.2,0,0,1,608,276.36c-11.74,0-22.88-3-32.23-12.41-7.93-8-13.44-21.79-13.44-39.25,0-32.47,19.12-53.25,48.32-53.25,9.42,0,17,2.19,20.81,4l-2.3,6c-4.52-2.18-10.35-3.88-19-3.88-23.59,0-40.52,16.13-40.52,46.13,0,31.14,16,46.55,39.33,46.55,9.12,0,14.83-1.4,17.82-3V230.19H605.37V224.3h28.47Z" transform="translate(-72.76 -144.55)"/><path class="cls-3" d="M663.86,239.54l-11.37,35.83h-7.14l33.34-102.92h6.82l33.33,102.92h-7.28L700,239.54Zm34.16-6-10.74-32.78c-2.31-7.38-3.69-13.19-5.14-19.75h-.45c-1.38,6.72-3,12.75-5.07,19.58l-10.74,32.95Z" transform="translate(-72.76 -144.55)"/><path class="cls-3" d="M732.65,173.89a87,87,0,0,1,19.75-2.14c12.26,0,20.05,2.76,25.51,8.22,4.43,4.41,7,11.28,7,18.6,0,14-7.76,22.61-19.2,26.87v.3c8.19,2.47,13.1,10.25,15.55,22.73,3.23,16,5.15,23.19,7,26.9H781c-1.61-3.05-3.68-12.2-6.29-25.32-3-14.88-9-21.47-22.1-21.87H739.7v47.19h-7.05Zm7.05,48.62h13.17c14.92,0,24.89-8.93,24.89-22.72,0-15.19-9.82-22.15-25.59-22.15a54.44,54.44,0,0,0-12.47,1.17Z" transform="translate(-72.76 -144.55)"/><path class="cls-3" d="M910.24,226.37c-.92-15.56-2-33.67-1.79-45.17h-.52c-3.33,11.36-7.12,23.34-12.45,38.41l-19.62,55.76H871.3l-18.45-54.05c-5.4-16-9.4-28.47-12.26-40.12h-.45c-.09,12.27-.78,29.39-1.87,46.56l-2.86,47.61h-7l6.87-102.92h8.11l19.81,57.47c4.54,13.33,7.85,23.37,10.62,33.84h.38C876.76,253.54,880,244,884.8,230L905,172.45h8.56l6.53,102.92h-7Z" transform="translate(-72.76 -144.55)"/><path class="cls-3" d="M1012.87,223.19c0,36.88-19.4,53.72-40.55,53.72-21.7,0-39.26-18.21-39.26-52.28,0-35,18.19-53.72,40.69-53.72C995.87,170.91,1012.87,189.28,1012.87,223.19Zm-72.45,1.28c0,22.18,10.62,46.4,32.5,46.4s32.6-23.58,32.6-47.36c0-21.14-9.51-46.57-32.43-46.57S940.42,201.59,940.42,224.47Z" transform="translate(-72.76 -144.55)"/><path class="cls-3" d="M1035.64,172.45V237c0,24.53,10.78,33.79,24.18,33.79,15,0,25.28-10.17,25.28-33.79V172.45h7.05v63.86c0,30.17-15.37,40.6-32.71,40.6-16.09,0-30.84-9.5-30.84-39.18V172.45Z" transform="translate(-72.76 -144.55)"/><path class="cls-3" d="M1113.81,275.37V172.45h6.8L1154.93,231c7.36,12.9,13.18,23.75,17.87,34.51l.31-.17C1172,249.77,1172,238.42,1172,222V172.45h6.82V275.37h-6.72l-34.1-58.7C1131.22,205,1125,194.14,1120,182.15l-.39.16c.91,13.63,1,24.77,1,43.6v49.46Z" transform="translate(-72.76 -144.55)"/><path class="cls-3" d="M1217.8,178.42h-29.26v-6h65.57v6h-29.26v97h-7Z" transform="translate(-72.76 -144.55)"/><path class="cls-3" d="M1264.77,239.54l-11.38,35.83h-7.13l33.34-102.92h6.82l33.32,102.92h-7.28l-11.53-35.83Zm34.15-6-10.73-32.78c-2.32-7.38-3.69-13.19-5.15-19.75h-.45c-1.38,6.72-3,12.75-5.07,19.58l-10.74,32.95Z" transform="translate(-72.76 -144.55)"/><path class="cls-3" d="M1340.6,172.45V275.37h-7V172.45Z" transform="translate(-72.76 -144.55)"/><path class="cls-3" d="M1362.26,275.37V172.45h6.81L1403.39,231c7.36,12.9,13.18,23.75,17.87,34.51l.31-.17c-1.07-15.53-1.15-26.88-1.15-43.34V172.45h6.82V275.37h-6.73l-34.09-58.7c-6.75-11.69-13-22.53-17.94-34.52l-.38.16c.91,13.63,1,24.77,1,43.6v49.46Z" transform="translate(-72.76 -144.55)"/><path class="cls-3" d="M738.39,312c-.14-3.61-.27-7.91-.26-12.27H738c-1,3.81-2.2,8-3.32,11.56L731,322.93h-5.23l-3.21-11.51c-1-3.51-2-7.73-2.69-11.66h-.09c-.15,4.05-.31,8.65-.49,12.36l-.56,11.3h-6.23l1.91-29.78h9l2.9,9.95c.94,3.42,1.86,7.16,2.53,10.65H729c.81-3.45,1.82-7.38,2.83-10.7l3.17-9.9h8.8l1.6,29.78h-6.54Z" transform="translate(-72.76 -144.55)"/><path class="cls-3" d="M757.34,293.64v29.78h-6.73V293.64Z" transform="translate(-72.76 -144.55)"/><path class="cls-3" d="M763.2,294a59.52,59.52,0,0,1,9.08-.64c5.65,0,9.34,1.05,12.19,3.2,3.1,2.31,5,5.94,5,11.21,0,5.71-2.06,9.65-4.92,12.06-3.14,2.61-7.94,3.86-13.74,3.86a56.58,56.58,0,0,1-7.65-.44Zm6.72,24.31a15.13,15.13,0,0,0,2.35.12c6.1,0,10.11-3.32,10.11-10.44,0-6.19-3.61-9.44-9.4-9.44a14.15,14.15,0,0,0-3.06.26Z" transform="translate(-72.76 -144.55)"/><path class="cls-3" d="M794,294a59.38,59.38,0,0,1,9.07-.64c5.66,0,9.35,1.05,12.2,3.2,3.09,2.31,5,5.94,5,11.21,0,5.71-2.07,9.65-4.93,12.06-3.13,2.61-7.93,3.86-13.73,3.86a56.35,56.35,0,0,1-7.65-.44Zm6.72,24.31a15.13,15.13,0,0,0,2.35.12c6.1,0,10.11-3.32,10.11-10.44,0-6.19-3.61-9.44-9.4-9.44a14.15,14.15,0,0,0-3.06.26Z" transform="translate(-72.76 -144.55)"/><path class="cls-3" d="M824.71,293.64h6.73v24.13h11.85v5.65H824.71Z" transform="translate(-72.76 -144.55)"/><path class="cls-3" d="M865,310.82H854v7.08h12.25v5.52h-19V293.64h18.35v5.51H854v6.21h11Z" transform="translate(-72.76 -144.55)"/><path class="cls-3" d="M880,316.47a16.65,16.65,0,0,0,7.47,1.87c3.09,0,4.73-1.29,4.73-3.24s-1.42-2.91-5-4.17c-5-1.76-8.21-4.47-8.21-8.82,0-5.08,4.26-8.94,11.27-8.94a17.73,17.73,0,0,1,7.6,1.5l-1.49,5.4a14.33,14.33,0,0,0-6.22-1.41c-2.93,0-4.33,1.35-4.33,2.88,0,1.89,1.65,2.73,5.52,4.19,5.27,2,7.71,4.7,7.71,8.91,0,5-3.81,9.24-12,9.24a19.31,19.31,0,0,1-8.41-1.85Z" transform="translate(-72.76 -144.55)"/><path class="cls-3" d="M925.52,322.6a19.33,19.33,0,0,1-7.61,1.28c-10.31,0-15.63-6.44-15.63-14.93,0-10.16,7.28-15.78,16.27-15.78a17.25,17.25,0,0,1,7.33,1.32l-1.37,5.33a14.09,14.09,0,0,0-5.66-1.12c-5.31,0-9.48,3.24-9.48,9.86,0,6,3.52,9.72,9.52,9.72a16.41,16.41,0,0,0,5.63-1Z" transform="translate(-72.76 -144.55)"/><path class="cls-3" d="M936.7,293.64v11.45h11.11V293.64h6.73v29.78h-6.73V311H936.7v12.46H930V293.64Z" transform="translate(-72.76 -144.55)"/><path class="cls-3" d="M987.65,308.23c0,9.77-5.9,15.68-14.6,15.68s-14-6.69-14-15.18c0-8.9,5.73-15.58,14.49-15.58C982.66,293.15,987.65,300,987.65,308.23Zm-21.51.37c0,5.84,2.75,9.95,7.24,9.95s7.15-4.3,7.15-10.09c0-5.37-2.53-9.95-7.17-9.95S966.14,302.81,966.14,308.6Z" transform="translate(-72.76 -144.55)"/><path class="cls-3" d="M1019.34,308.23c0,9.77-5.9,15.68-14.61,15.68s-14-6.69-14-15.18c0-8.9,5.73-15.58,14.5-15.58C1014.34,293.15,1019.34,300,1019.34,308.23Zm-21.52.37c0,5.84,2.75,9.95,7.24,9.95s7.16-4.3,7.16-10.09c0-5.37-2.54-9.95-7.17-9.95S997.82,302.81,997.82,308.6Z" transform="translate(-72.76 -144.55)"/><path class="cls-3" d="M1023.78,293.64h6.73v24.13h11.85v5.65h-18.58Z" transform="translate(-72.76 -144.55)"/><line class="cls-4" x1="546.11" y1="163.86" x2="619.76" y2="163.86"/><line class="cls-4" x1="987.86" y1="163.86" x2="1061.51" y2="163.86"/><path class="cls-3" d="M178.21,355.45A105.45,105.45,0,1,1,283.66,250,105.57,105.57,0,0,1,178.21,355.45Zm0-204.11A98.66,98.66,0,1,0,276.87,250,98.77,98.77,0,0,0,178.21,151.34Z" transform="translate(-72.76 -144.55)"/><g class="cls-5"><path class="cls-6" d="M89.27,285.93a129.74,129.74,0,0,0,10.67,18.55c6.59,9.77,14,19.32,23.91,25.71,7.91,5.11,17,8,26,10.77,7.89,2.46,15.91,4.93,24.17,5.17,7.42.22,14.75-1.38,22-3,8.93-2,17.92-3.94,26.27-7.64,12.89-5.73,23.77-15.42,32.18-26.74s14.44-24.25,19.19-37.53c2.37-6.63,4.44-13.92,2.2-20.6-1.76-5.26-5.89-9.24-9.94-12.81-.92-.81-2-1.28-3-2-1.16-.91-2.33-1.79-3.48-2.7a45.69,45.69,0,0,1-6.48-5.87c-.14-.15-.27-.31-.4-.47a36.14,36.14,0,0,1-3.35-4.86,20.27,20.27,0,0,1-1.7-3.43c-.41-1.2-1.69-2-2.57-2.9l-7.16-6.86a51,51,0,0,0-8.3-6.9A17.19,17.19,0,0,0,219.27,199c-2.66.21-5.17,1.24-7.76,1.9a12.86,12.86,0,0,1-6.07.27,20.37,20.37,0,0,0-2-.32c-1.87-.28-3.37-2.16-4.57-3.44a132,132,0,0,0-13.79-12.85c-3.47-2.8-7.32-5.52-11.76-6-4.9-.52-9.72,1.82-13.5,5s-6.76,7.15-10.14,10.75a44.19,44.19,0,0,1-15,10.85c-6,2.47-12.61,3.15-18.59,5.66-6.4,2.7-11.69,7.37-16.41,12.36-1.74,1.84-3.37,3.8-5.14,5.6a8.31,8.31,0,0,0-1.08,1.7c-1.5,2.64-3,5.29-4.32,8a57,57,0,0,0-5.19,14.42C81.76,264.12,84.45,275.36,89.27,285.93Z" transform="translate(-72.76 -144.55)"/><path class="cls-7" d="M271.38,242c-3.06,0-5.65.32-8.4-1a17.5,17.5,0,0,1-3.74-2.54c-2.42-2.07-4.45-4.54-6.69-6.8a33.76,33.76,0,0,0-2.86-2.62,1.88,1.88,0,0,0-1.21-.53,1.85,1.85,0,0,0-1,.54l-9.29,7.7c-1.25-4.51,6.28-7.75,5.36-12.33a7.47,7.47,0,0,0-1.94-3.24l-5.62-6.5a2.4,2.4,0,0,0-1.14-.86,2.2,2.2,0,0,0-1.63.53,18.63,18.63,0,0,0-4.71,4.62c-1,1.48-1.92,3.28-1.57,5.07.51,2.69,3.6,4.7,3.15,7.39a6.43,6.43,0,0,0-4-2.53l.38,5.14c0-.28-2.57-.68-2.87-.73a16.71,16.71,0,0,0-3.08-.18c-1.51.06-2.59.93-4,1.21a42.15,42.15,0,0,0-10.06,2.76,15.64,15.64,0,0,0-5.35,4,4.45,4.45,0,0,1-2.82,1c-7.18.09-14.36.05-21.8.05l.65-3.33-4.62-.9c2.1-4.45,11.6-3.26,11.87-9.6l-13,2.49c2.93-2,5.39-3.19,7.11-4.86,2.45-2.38,5.3-4.93,6.14-7.71.53-1.75-1.84-4.41-3.82-6.05-2.33-1.93-5.76-1.38-8.37.06-14.62,8.07-17.69,10-14.86,23.18.45,2.1,1.05,4.18,1.69,6.72-4.33,0-8.14.14-11.92-.08a5.48,5.48,0,0,1-3.19-1.77c-2.57-2.81-5.21-4.67-9.5-1.61-.46.33-1.39.28-2.78-.28,1.61-1.19,3.16-2.42,4.84-3.55,3.56-2.37,4.44-5.68,1.92-7.55s-6.72-1.52-9.65,1.32c-4.69,4.56-10,8.11-17.89,8.78-.72.06-1.46,0-3.7,0,7.42-3.2,12.24-6.9,13.77-12.87L115,225c2.57-1.69,4.44-2.82,6.17-4.06,2.14-1.55,4.28-3.31,1.85-5.6a8.83,8.83,0,0,0-9.44-1.73,11,11,0,0,0-7.5,8.73c-.78,3.62-1.51,7.26-3.35,10.77v-5.92c-6.67,5.36-12.43,10-18.19,14.59l-.9-.12c1-2.25,1.5-4.75,3.13-6.7,3.12-3.76,6.87-7.23,10.4-10.8,4.11-4.13,8.34-8.2,12.38-12.37,1.86-1.91,3.56-3.53,7.27-3.4a6.33,6.33,0,0,0,4.4-2c1.84-2.52,4.11-3.18,7.47-2s5.8.09,8.19-1.61c9.65-6.87,19.29-13.72,26.22-22.44,4.05-5.09,7.39-5.56,14.46-3s13.24,6.19,17.5,11.42a84.08,84.08,0,0,0,7.58,7.92A11,11,0,0,0,214.53,199c7.61-2.72,14-1.23,19.42,3.25,2.92,2.4,6.11,4.67,8.54,7.33C252.06,220.09,261.38,230.73,271.38,242Zm-92.53-53c3-4.27,2-6.18-4-9.11-3.61-1.73-6.55-1.44-9.06,1.25-6.14,6.6-12.27,13.2-18.51,19.74a28.36,28.36,0,0,1-4.85,4c-5,3.31-5.58,5.08-2.32,9.35a29.92,29.92,0,0,0,5.36,5.5c3.56,2.79,5.65,2.66,9.22-.08,5.5-4.2,11.07-8.36,16.51-12.61,3.36-2.63,6.27-2.29,9.21.37,2.09,1.9,4.32,3.72,6.49,5.57l1.1-.43c-1.65-3.82-3.26-7.66-5-11.47-1.17-2.65-3.47-2.92-6.32-1.48-3.33,1.68-6.6,3.43-9.89,5.15,4.77-4.94,8.14-11.11,17.95-11.32.52,0,1.54-1.36,1.36-1.91a3.81,3.81,0,0,0-2.15-2.38C182.58,188.71,180.83,189,178.85,189Zm37.41,40.9,1.56-.14c.86-3,1.33-6.13,2.67-9,2.09-4.5,1.78-10.06,8.95-12.56.56-.2,1.21-1.28,1-1.52-1.94-2.09-3.7-4.45-6.29-6a8.66,8.66,0,0,0-6.39.1c-5.59,3.35-7.36,8.44-10.37,13.71l5.83-1.68C214.29,218.83,215.27,224.38,216.26,229.92Z" transform="translate(-72.76 -144.55)"/><path class="cls-8" d="M108.69,264.93l.24-.3a9.06,9.06,0,0,0,.87-1c1.53-2.44,3.07-4.88,4.6-7.33l8-12.66-2.18-2.19,8.67-11.5s29.1-11.77,29.65-11.91,4.11-.82,4.11-.82l-1.92-5.89s13.55-1.23,14.37-1.23,24.41,5.34,24.41,5.34l15.84,7.18,7.94,5.21,6.73,6.09,2.76-.82,11.46,8.62s2.87,11.3,2.87,12.57-4.65,8.44-4.65,8.44l-8.63-8.44-18.07,1.94s-11.22,7.26-13.14,19.17-3,25.23-1.48,29.32c.48,1.31,1,2.6,1.52,3.89q1.68,4.19,3.39,8.35,1,2.46,2,4.9c.34.85.79,1.69,1.09,2.54s.62,1.81,1,2.71c.72,1.76,1.54,3.49,2.19,5.28,1,2.79,1.61,5.89.67,8.71-1.62,4.91-7.13,7.26-12.13,8.57-27.86,7.27-59.17-.55-80.34-20.05l-.63-.59c-2.63-2.46-5.13-5.06-7.79-7.49-1.33-1.2-2.69-2.36-4.13-3.43-.72-.54-1.45-1.05-2.21-1.53a9.58,9.58,0,0,1-.92-.65,2.2,2.2,0,0,0-.66-.35l-3.08-1.22a3.4,3.4,0,0,1-2.95-3.73c-.24-8.12-.1-16.31,1.47-24.29a60.44,60.44,0,0,1,2.58-9.32A46.93,46.93,0,0,1,108,265.89Z" transform="translate(-72.76 -144.55)"/><path class="cls-9" d="M221.25,230.12c-3.07.31-3.44,0-6.9,2.29a47.69,47.69,0,0,1-9.3,4.11l-9.13,1.7-10,4.55v4l14.89.85,8.29,10.52L219.94,256l10.48-1.19,13,8a17.48,17.48,0,0,0,2.7-11.18c-.5-6.93.34-13.36-12-19.11S221.25,230.12,221.25,230.12Z" transform="translate(-72.76 -144.55)"/><path class="cls-10" d="M222.42,243.3c-1.78-.53-3.59-.91-5.42-1.27a45.87,45.87,0,0,0-5.6-.61,68.44,68.44,0,0,0-21.32,2.76,40.53,40.53,0,0,1,14.17-4.86c1.05,0,3.27-.21,3.27-.21a13.73,13.73,0,0,1,3.37-4.45c1.88-1.33,3.46-2.25,3.46-2.25a78.51,78.51,0,0,1-8.63-3.45c-2.53-1.16-5-2.53-7.51-3.63-1.17-.51-2.36-1-3.56-1.43s-2.22-.77-3.35-1.09A55.28,55.28,0,0,0,171.88,221a26,26,0,0,1,5.12,2.5,52.39,52.39,0,0,1,6.2,5,7.51,7.51,0,0,1,5.72-5.2l.06.15a12.76,12.76,0,0,0-3.16,2.94,8,8,0,0,0-1.31,3.18,12.51,12.51,0,0,0,4.7,2.51s-.05.89-2.63.85-2.5.26-4.9.93-8.42,4.86-10.33,10.61.62,12,.62,12,1.24-1.89,1.7-2.49a16.84,16.84,0,0,1,13.25-6.29,17.48,17.48,0,0,1,3.3.31,17,17,0,0,1,3.5,1.06c.55.24,1.09.5,1.61.79l.39.23a2.8,2.8,0,0,1,.3.15s0,0,0,0c.86.26,1.39.47,1.39.47a1.39,1.39,0,0,0-.73.2l.06.06-.27,0-.65.32a39.18,39.18,0,0,0-5.34,2.36c-9.59,5.56-15.95,15.06-13.81,26.5a24.68,24.68,0,0,1,8.24-6.6A24.61,24.61,0,0,0,188.76,302a24.1,24.1,0,0,1-1.21-9.1,24.54,24.54,0,0,1,3-10.5c0,.22,0,.47-.06.72a24.56,24.56,0,0,0,10.58,21.61V292.2L206,266.36l9.26-8.79a29.77,29.77,0,0,0-.59-5.82,15,15,0,0,0-2-4.25c-.5-.78-1.05-1.55-1.62-2.29a8,8,0,0,0-1.8-1.93c.71,0,1.42,0,2.13.05a62.35,62.35,0,0,1,10.78,1.45q5.34,1.13,10.58,2.68l.06-.19A58.47,58.47,0,0,0,222.42,243.3Z" transform="translate(-72.76 -144.55)"/><path class="cls-10" d="M221.05,234.81a26.77,26.77,0,0,0,3.88,3.41,1.89,1.89,0,0,0-.33-.13l-.33-.13-.7-.22a13.2,13.2,0,0,0-1.41-.35,14,14,0,0,0-2.89-.23,14.15,14.15,0,0,0-1.45.11l-.71.12-.35.07s-.27.09-.31,0,.72-.81.82-.89a6.67,6.67,0,0,1,1.06-.77,8.1,8.1,0,0,1,2.4-1Z" transform="translate(-72.76 -144.55)"/><path class="cls-10" d="M102.82,287.73c.94-4.5,8.4-24.13,11.22-28.8s10.62-15.56,15.52-18.17L121,242s7.25-9,13.93-12.47l1.17-.61c1.32-.67,2.64-1.32,4-2l4.56-2.2,4.58-2.19,4.08-1.92,1.67-.78.38-.18c.16-.08.28-.22.44-.3s.54-.22.81-.33a3.53,3.53,0,0,0,.78-.31c-.65.47-1.51-.15-2.3-.32a4.09,4.09,0,0,0-1,0,26.28,26.28,0,0,0-8.92,1.73,37.41,37.41,0,0,0-6,3.5c-4.76,3.15-9.61,6.2-13.83,10-1.07,1-2.1,2-3.26,2.87a10.81,10.81,0,0,1-2.48,1.45,3,3,0,0,0-.62.26,5.34,5.34,0,0,1-.69.43l-3,1.51-.8.41s-.21.08-.22.12L113,244l.94,3.14-11.07,23.31-5.06,17.25,2,.79Z" transform="translate(-72.76 -144.55)"/><path class="cls-10" d="M114,258.93l8.85-1.33s-10.58,3.84-14,12.69-7.79,10.51-7.79,10.51Z" transform="translate(-72.76 -144.55)"/><path class="cls-10" d="M247.81,242.19a35.21,35.21,0,0,0-12.75-10.91c-5-2.54-10-4.57-10-4.57a11.33,11.33,0,0,0-5.58-6.1c-1-.48-1.92-.92-2.89-1.34-2.29-1-4.62-1.89-7-2.75-2.54-.92-5.1-1.79-7.67-2.63s-4.87-1.54-7.32-2.27c-2-.58-3.93-1.14-5.91-1.66a49.14,49.14,0,0,0-5.24-1.07,89.9,89.9,0,0,0-9.56-.77h-1.43a65.12,65.12,0,0,0-7.25.41c-.83.1-1.67.21-2.5.34a46.62,46.62,0,0,0-4.67,1l-.28.08-1.58.44c-.53.16-1.05.33-1.56.54-.26.1-.51.2-.75.32s-.51.2-.75.33a22.79,22.79,0,0,1,5.85,4.1,97.12,97.12,0,0,0-15,4.84,87.33,87.33,0,0,0-8.07,3.78c-2.43,1.27-4.79,2.64-7.1,4.1a100.06,100.06,0,0,0-23.07,20.35,27.19,27.19,0,0,1,8-1.49A97.08,97.08,0,0,0,96.64,294v.08l1.53-1.65a37.31,37.31,0,0,1,4.31-3.73c.55-2.12,1.19-4.46,1.87-6.69-.44.24-.87.49-1.3.75.49-2.24,1.07-4.44,1.72-6.62a93,93,0,0,1,12.72-26.27l5.25-7.55-4.72.16a95.39,95.39,0,0,1,13.27-10.22c2.19-1.38,4.47-2.7,6.79-3.92s5-2.51,7.67-3.59a92.41,92.41,0,0,1,14.34-4.61l11.23-2.58-8-4.11.2,0c.72-.11,1.47-.21,2.31-.31a60.27,60.27,0,0,1,6.72-.38h1.35a87.39,87.39,0,0,1,9,.73,41.94,41.94,0,0,1,4.68,1c1.71.45,3.55,1,5.78,1.62s4.8,1.46,7.2,2.24c2.71.88,5.17,1.72,7.51,2.58,2.64,1,4.77,1.8,6.72,2.64,1,.44,1.88.84,2.67,1.23a6.89,6.89,0,0,1,3.25,3.41l.53,2,2.1.86c.05,0,4.85,2,9.63,4.41a30.82,30.82,0,0,1,11,9.38c1.41,2.08.88,10.43-.55,14.71a1.66,1.66,0,0,1-.2.36,11.11,11.11,0,0,0-5.36-5A30.66,30.66,0,0,0,225.14,252q-.63,0-1.26,0c-9.85.44-18.14,7.66-21.25,14.55a63.41,63.41,0,0,0-3.81,35.93c1.68,9,4.31,15,7.78,22.26-.09,0,1.82,5.25,1.72,5.24.55,1.67,2,10.11,2.44,11.73,2.83.62,6.54-4.1,8.36-4.1,0,0-13-21.39-15.77-36a59.32,59.32,0,0,1,3.48-33.19c2.54-5.62,9.52-11.49,17.25-11.84.36,0,.71,0,1.06,0a25.88,25.88,0,0,1,10.74,2.4,9,9,0,0,1,4.73,5.26c1.19,3.4,2.21,7.11,2.21,7.11a83.88,83.88,0,0,0,5-10.44C249.07,257.16,250.72,246.5,247.81,242.19Z" transform="translate(-72.76 -144.55)"/><path class="cls-10" d="M102.82,287.73c-1.21,6,.75,29.39.75,29.39L93,314.46,94,310a6.65,6.65,0,0,1,.38-1.44,2.39,2.39,0,0,0,.32-1,9.28,9.28,0,0,0-.32-3c-.49-2-1.38-3.93-1.82-6a19.66,19.66,0,0,1-.39-3,12.42,12.42,0,0,1,.16-1.35A13.19,13.19,0,0,0,91,287.34a1.68,1.68,0,0,1-.26-1,1.5,1.5,0,0,1,.73-.88c1.69-1.16,2-2.65,3.59-4,2.18-1.92,3.68-5.35,5.94-8.3,2.32-2.62-1.27,7.52-.89,9.34q.3,1.4.66,2.76c.12.45.22.92.38,1.36a3.82,3.82,0,0,0,.73,1.11.44.44,0,0,0,.24.11A2.2,2.2,0,0,0,102.82,287.73Z" transform="translate(-72.76 -144.55)"/><path class="cls-10" d="M158.68,294.77c.28.69.55,1.39.8,2.08a56.54,56.54,0,0,1,1.74,5.6,57.92,57.92,0,0,0-3-5c-1.07-1.59-2.21-3.14-3.41-4.59-.6-.73-1.22-1.43-1.86-2.08h0A50.21,50.21,0,0,0,136.65,285l-2.71-1.43A23.16,23.16,0,0,0,130,282.1a26.24,26.24,0,0,0-3.77-.87c-1.25-.2-2.48-.33-3.7-.41s-2.41-.14-3.62-.18a66.2,66.2,0,0,0-7.19.16,40.89,40.89,0,0,1,7.66,1.61,24.35,24.35,0,0,1,4.14,1.84C100.86,285.67,83,300.67,83,319c0,19.24,19.7,34.83,44,34.83s44-15.59,44-34.83C171,309.57,166.33,301,158.68,294.77Zm-7.33,44.89c-6.88,5.44-16.29,3-26.21,3s-17.28-.05-24.15-5.49c-6.32-5-9.8-11.48-9.8-18.24s3.48-13.24,9.8-18.24c6.87-5.44,16.13-8.44,26.05-8.44s19.27.36,26.14,5.81c6.32,5,12.57,14.11,12.57,20.87C164,330.32,157.66,334.66,151.35,339.66Z" transform="translate(-72.76 -144.55)"/><path class="cls-9" d="M199.38,230c-.21,0-.43.06-.65.06a8.64,8.64,0,0,1-3.57-.77c-.57,1.75-1.44,3-2.07,2.82s-.82-2-.28-4c0-.12.07-.22.1-.33a5.91,5.91,0,0,1-1.59-2.86,6.27,6.27,0,1,0,8.15,6A6,6,0,0,0,199.38,230Z" transform="translate(-72.76 -144.55)"/></g></svg>